<mxfile host="65bd71144e">
    <diagram id="S66-7E56quMltCmkMa36" name="Page-1">
        <mxGraphModel dx="1187" dy="779" grid="1" gridSize="10" guides="1" tooltips="1" connect="1" arrows="1" fold="1" page="1" pageScale="1" pageWidth="850" pageHeight="1100" math="0" shadow="0">
            <root>
                <mxCell id="0"/>
                <mxCell id="1" parent="0"/>
                <mxCell id="4" value="" style="whiteSpace=wrap;html=1;aspect=fixed;sketch=1;curveFitting=1;jiggle=2;labelBackgroundColor=none;labelBorderColor=#000099;fillColor=#dae8fc;strokeColor=#6c8ebf;" vertex="1" parent="1">
                    <mxGeometry x="670" y="420" width="110" height="110" as="geometry"/>
                </mxCell>
                <mxCell id="8" value="GeoPlugin&lt;div&gt;&lt;br&gt;&lt;/div&gt;" style="text;html=1;align=center;verticalAlign=middle;whiteSpace=wrap;rounded=0;fontFamily=Comic Sans MS;" vertex="1" parent="1">
                    <mxGeometry x="660" y="470" width="130" height="20" as="geometry"/>
                </mxCell>
                <mxCell id="10" value="" style="shape=ext;double=1;rounded=0;whiteSpace=wrap;html=1;sketch=1;curveFitting=1;jiggle=2;labelBorderColor=light-dark(#6e2b55, #ededed);" vertex="1" parent="1">
                    <mxGeometry x="350" y="690" width="120" height="80" as="geometry"/>
                </mxCell>
                <mxCell id="12" value="&lt;div&gt;Gpt-4o&lt;/div&gt;" style="text;html=1;align=center;verticalAlign=middle;whiteSpace=wrap;rounded=0;fontFamily=Comic Sans MS;" vertex="1" parent="1">
                    <mxGeometry x="337.41" y="700" width="130" height="20" as="geometry"/>
                </mxCell>
                <mxCell id="16" value="" style="whiteSpace=wrap;html=1;aspect=fixed;sketch=1;curveFitting=1;jiggle=2;labelBackgroundColor=none;labelBorderColor=#000099;fillColor=#dae8fc;strokeColor=#6c8ebf;" vertex="1" parent="1">
                    <mxGeometry x="705" y="280" width="100" height="100" as="geometry"/>
                </mxCell>
                <mxCell id="17" value="&lt;div&gt;TimePlugin&lt;/div&gt;" style="text;html=1;align=center;verticalAlign=middle;whiteSpace=wrap;rounded=0;fontFamily=Comic Sans MS;" vertex="1" parent="1">
                    <mxGeometry x="680" y="310" width="130" height="20" as="geometry"/>
                </mxCell>
                <object label="" WeatherPlugin="" id="18">
                    <mxCell style="whiteSpace=wrap;html=1;aspect=fixed;sketch=1;curveFitting=1;jiggle=2;glass=0;rounded=0;shadow=0;labelBackgroundColor=none;labelBorderColor=#3333FF;fillColor=#dae8fc;strokeColor=#6c8ebf;" vertex="1" parent="1">
                        <mxGeometry x="695" y="110" width="110" height="110" as="geometry"/>
                    </mxCell>
                </object>
                <mxCell id="19" value="WeatherPlugin&lt;div&gt;&lt;br&gt;&lt;/div&gt;" style="text;html=1;align=center;verticalAlign=middle;whiteSpace=wrap;rounded=0;fontFamily=Comic Sans MS;" vertex="1" parent="1">
                    <mxGeometry x="690" y="150" width="130" height="20" as="geometry"/>
                </mxCell>
                <mxCell id="20" value="" style="shape=ext;double=1;rounded=0;whiteSpace=wrap;html=1;sketch=1;curveFitting=1;jiggle=2;labelBorderColor=light-dark(#6e2b55, #ededed);" vertex="1" parent="1">
                    <mxGeometry x="130" y="690" width="120" height="80" as="geometry"/>
                </mxCell>
                <mxCell id="21" value="&lt;div&gt;AI Search&lt;/div&gt;" style="text;html=1;align=center;verticalAlign=middle;whiteSpace=wrap;rounded=0;fontFamily=Comic Sans MS;" vertex="1" parent="1">
                    <mxGeometry x="125" y="722" width="130" height="20" as="geometry"/>
                </mxCell>
                <mxCell id="23" value="Actor" style="shape=umlActor;verticalLabelPosition=bottom;verticalAlign=top;html=1;outlineConnect=0;" vertex="1" parent="1">
                    <mxGeometry x="30" y="310" width="30" height="60" as="geometry"/>
                </mxCell>
                <mxCell id="24" value="" style="image;aspect=fixed;html=1;points=[];align=center;fontSize=12;image=img/lib/azure2/app_services/Search_Services.svg;" vertex="1" parent="1">
                    <mxGeometry x="170" y="700" width="30.46" height="22" as="geometry"/>
                </mxCell>
                <mxCell id="27" value="" style="shape=ext;double=1;rounded=0;whiteSpace=wrap;html=1;sketch=1;curveFitting=1;jiggle=2;" vertex="1" parent="1">
                    <mxGeometry x="100" y="750" width="390" height="100" as="geometry"/>
                </mxCell>
                <mxCell id="28" value="" style="image;aspect=fixed;html=1;points=[];align=center;fontSize=12;image=img/lib/azure2/ai_machine_learning/AI_Studio.svg;" vertex="1" parent="1">
                    <mxGeometry x="180" y="780" width="45.18" height="48" as="geometry"/>
                </mxCell>
                <mxCell id="29" value="AI Foundry" style="text;html=1;align=center;verticalAlign=middle;whiteSpace=wrap;rounded=0;" vertex="1" parent="1">
                    <mxGeometry x="305.36999999999995" y="789" width="60" height="30" as="geometry"/>
                </mxCell>
                <mxCell id="30" value="" style="whiteSpace=wrap;html=1;aspect=fixed;sketch=1;curveFitting=1;jiggle=2;" vertex="1" parent="1">
                    <mxGeometry x="140" y="130" width="360" height="360" as="geometry"/>
                </mxCell>
                <mxCell id="31" value="" style="whiteSpace=wrap;html=1;aspect=fixed;" vertex="1" parent="1">
                    <mxGeometry x="235" y="220" width="170" height="170" as="geometry"/>
                </mxCell>
                <mxCell id="32" value="Architecture&lt;div&gt;&lt;br&gt;&lt;/div&gt;" style="text;strokeColor=none;fillColor=none;html=1;fontSize=24;fontStyle=1;verticalAlign=middle;align=center;" vertex="1" parent="1">
                    <mxGeometry x="180" y="40" width="320" height="40" as="geometry"/>
                </mxCell>
                <mxCell id="33" value="StreamLit" style="text;html=1;align=center;verticalAlign=middle;whiteSpace=wrap;rounded=0;" vertex="1" parent="1">
                    <mxGeometry x="270" y="140" width="60" height="30" as="geometry"/>
                </mxCell>
                <mxCell id="34" value="Semantic Kernel" style="text;html=1;align=center;verticalAlign=middle;whiteSpace=wrap;rounded=0;" vertex="1" parent="1">
                    <mxGeometry x="277.41" y="250" width="60" height="90" as="geometry"/>
                </mxCell>
                <mxCell id="37" value="" style="endArrow=classic;html=1;entryX=0.027;entryY=0.645;entryDx=0;entryDy=0;entryPerimeter=0;exitX=1.018;exitY=0.447;exitDx=0;exitDy=0;exitPerimeter=0;" edge="1" parent="1" source="31" target="18">
                    <mxGeometry width="50" height="50" relative="1" as="geometry">
                        <mxPoint x="450" y="400" as="sourcePoint"/>
                        <mxPoint x="400" y="450" as="targetPoint"/>
                        <Array as="points">
                            <mxPoint x="480" y="290"/>
                        </Array>
                    </mxGeometry>
                </mxCell>
                <mxCell id="38" value="" style="endArrow=classic;html=1;entryX=0.027;entryY=0.645;entryDx=0;entryDy=0;entryPerimeter=0;exitX=1;exitY=0.75;exitDx=0;exitDy=0;" edge="1" parent="1" source="31">
                    <mxGeometry width="50" height="50" relative="1" as="geometry">
                        <mxPoint x="430" y="465" as="sourcePoint"/>
                        <mxPoint x="720" y="350" as="targetPoint"/>
                        <Array as="points"/>
                    </mxGeometry>
                </mxCell>
                <mxCell id="39" value="" style="endArrow=classic;html=1;entryX=0.6;entryY=0.013;entryDx=0;entryDy=0;entryPerimeter=0;exitX=0.6;exitY=1.018;exitDx=0;exitDy=0;exitPerimeter=0;" edge="1" parent="1" source="31" target="10">
                    <mxGeometry width="50" height="50" relative="1" as="geometry">
                        <mxPoint x="330" y="420" as="sourcePoint"/>
                        <mxPoint x="620" y="305" as="targetPoint"/>
                        <Array as="points"/>
                    </mxGeometry>
                </mxCell>
                <mxCell id="40" value="" style="endArrow=classic;html=1;entryX=0.525;entryY=0.1;entryDx=0;entryDy=0;entryPerimeter=0;exitX=0.406;exitY=0.994;exitDx=0;exitDy=0;exitPerimeter=0;" edge="1" parent="1" source="31" target="20">
                    <mxGeometry width="50" height="50" relative="1" as="geometry">
                        <mxPoint x="438" y="326" as="sourcePoint"/>
                        <mxPoint x="728" y="211" as="targetPoint"/>
                        <Array as="points"/>
                    </mxGeometry>
                </mxCell>
                <mxCell id="41" value="" style="endArrow=classic;html=1;entryX=0.082;entryY=0.382;entryDx=0;entryDy=0;entryPerimeter=0;exitX=0.982;exitY=0.941;exitDx=0;exitDy=0;exitPerimeter=0;" edge="1" parent="1" source="31" target="4">
                    <mxGeometry width="50" height="50" relative="1" as="geometry">
                        <mxPoint x="350" y="550" as="sourcePoint"/>
                        <mxPoint x="640" y="435" as="targetPoint"/>
                        <Array as="points"/>
                    </mxGeometry>
                </mxCell>
                <mxCell id="42" value="" style="shape=ext;double=1;rounded=0;whiteSpace=wrap;html=1;sketch=1;curveFitting=1;jiggle=2;" vertex="1" parent="1">
                    <mxGeometry x="100" y="910" width="390" height="100" as="geometry"/>
                </mxCell>
                <mxCell id="43" value="" style="image;aspect=fixed;html=1;points=[];align=center;fontSize=12;image=img/lib/azure2/analytics/Power_Platform.svg;" vertex="1" parent="1">
                    <mxGeometry x="250" y="940" width="55.37" height="58" as="geometry"/>
                </mxCell>
                <mxCell id="44" value="Fabric" style="text;html=1;align=center;verticalAlign=middle;whiteSpace=wrap;rounded=0;" vertex="1" parent="1">
                    <mxGeometry x="380" y="955" width="60" height="28" as="geometry"/>
                </mxCell>
                <mxCell id="48" value="" style="endArrow=none;dashed=1;html=1;exitX=1;exitY=0.5;exitDx=0;exitDy=0;" edge="1" parent="1" source="42" target="27">
                    <mxGeometry width="50" height="50" relative="1" as="geometry">
                        <mxPoint x="570" y="950" as="sourcePoint"/>
                        <mxPoint x="500" y="810" as="targetPoint"/>
                        <Array as="points">
                            <mxPoint x="600" y="890"/>
                        </Array>
                    </mxGeometry>
                </mxCell>
                <mxCell id="49" value="" style="rounded=1;whiteSpace=wrap;html=1;" vertex="1" parent="1">
                    <mxGeometry x="560.8" y="845" width="120" height="60" as="geometry"/>
                </mxCell>
                <mxCell id="50" value="Data Agent" style="text;html=1;align=center;verticalAlign=middle;whiteSpace=wrap;rounded=0;" vertex="1" parent="1">
                    <mxGeometry x="605" y="875" width="45" height="30" as="geometry"/>
                </mxCell>
                <mxCell id="52" value="" style="shape=ext;double=1;rounded=0;whiteSpace=wrap;html=1;sketch=1;curveFitting=1;jiggle=2;" vertex="1" parent="1">
                    <mxGeometry x="520" y="910" width="390" height="100" as="geometry"/>
                </mxCell>
                <mxCell id="53" value="" style="image;aspect=fixed;html=1;points=[];align=center;fontSize=12;image=img/lib/azure2/analytics/Azure_Databricks.svg;" vertex="1" parent="1">
                    <mxGeometry x="580" y="940" width="62.8" height="68" as="geometry"/>
                </mxCell>
                <mxCell id="56" value="" style="shape=ext;double=1;rounded=0;whiteSpace=wrap;html=1;" vertex="1" parent="1">
                    <mxGeometry x="695" y="722" width="120" height="80" as="geometry"/>
                </mxCell>
            </root>
        </mxGraphModel>
    </diagram>
</mxfile>